# Blender v2.79 (sub 0) OBJ File: ''
# www.blender.org
mtllib tube.mtl
o Cylinder.001_Cylinder.032
v 0.000000 1.000000 -1.000000
v 0.000000 1.000000 1.000000
v 0.098017 0.995185 -1.000000
v 0.098017 0.995185 1.000000
v 0.195090 0.980785 -1.000000
v 0.195090 0.980785 1.000000
v 0.290285 0.956940 -1.000000
v 0.290285 0.956940 1.000000
v 0.382683 0.923880 -1.000000
v 0.382683 0.923879 1.000000
v 0.471397 0.881921 -1.000000
v 0.471397 0.881921 1.000000
v 0.555570 0.831470 -1.000000
v 0.555570 0.831470 1.000000
v 0.634393 0.773011 -1.000000
v 0.634393 0.773010 1.000000
v 0.707107 0.707107 -1.000000
v 0.707107 0.707107 1.000000
v 0.773010 0.634393 -1.000000
v 0.773010 0.634393 1.000000
v 0.831470 0.555570 -1.000000
v 0.831470 0.555570 1.000000
v 0.881921 0.471397 -1.000000
v 0.881921 0.471397 1.000000
v 0.923880 0.382683 -1.000000
v 0.923880 0.382683 1.000000
v 0.956940 0.290285 -1.000000
v 0.956940 0.290285 1.000000
v 0.980785 0.195090 -1.000000
v 0.980785 0.195090 1.000000
v 0.995185 0.098017 -1.000000
v 0.995185 0.098017 1.000000
v 1.000000 -0.000000 -1.000000
v 1.000000 -0.000000 1.000000
v 0.995185 -0.098017 -1.000000
v 0.995185 -0.098017 1.000000
v 0.980785 -0.195091 -1.000000
v 0.980785 -0.195091 1.000000
v 0.956940 -0.290285 -1.000000
v 0.956940 -0.290285 1.000000
v 0.923879 -0.382684 -1.000000
v 0.923879 -0.382684 1.000000
v 0.881921 -0.471397 -1.000000
v 0.881921 -0.471397 1.000000
v 0.831469 -0.555570 -1.000000
v 0.831469 -0.555571 1.000000
v 0.773010 -0.634394 -1.000000
v 0.773010 -0.634394 1.000000
v 0.707106 -0.707107 -1.000000
v 0.707106 -0.707107 1.000000
v 0.634393 -0.773011 -1.000000
v 0.634393 -0.773011 1.000000
v 0.555570 -0.831470 -1.000000
v 0.555570 -0.831470 1.000000
v 0.471396 -0.881921 -1.000000
v 0.471396 -0.881922 1.000000
v 0.382683 -0.923880 -1.000000
v 0.382683 -0.923880 1.000000
v 0.290284 -0.956940 -1.000000
v 0.290284 -0.956941 1.000000
v 0.195090 -0.980785 -1.000000
v 0.195090 -0.980785 1.000000
v 0.098016 -0.995185 -1.000000
v 0.098016 -0.995185 1.000000
v -0.000001 -1.000000 -1.000000
v -0.000001 -1.000000 1.000000
v -0.098018 -0.995185 -1.000000
v -0.098018 -0.995185 1.000000
v -0.195091 -0.980785 -1.000000
v -0.195091 -0.980785 1.000000
v -0.290286 -0.956940 -1.000000
v -0.290286 -0.956940 1.000000
v -0.382684 -0.923879 -1.000000
v -0.382684 -0.923879 1.000000
v -0.471398 -0.881921 -1.000000
v -0.471398 -0.881921 1.000000
v -0.555571 -0.831469 -1.000000
v -0.555571 -0.831469 1.000000
v -0.634394 -0.773010 -1.000000
v -0.634394 -0.773010 1.000000
v -0.707108 -0.707106 -1.000000
v -0.707108 -0.707106 1.000000
v -0.773011 -0.634392 -1.000000
v -0.773011 -0.634393 1.000000
v -0.831470 -0.555570 -1.000000
v -0.831470 -0.555570 1.000000
v -0.881922 -0.471396 -1.000000
v -0.881922 -0.471396 1.000000
v -0.923880 -0.382683 -1.000000
v -0.923880 -0.382683 1.000000
v -0.956940 -0.290285 -1.000000
v -0.956940 -0.290285 1.000000
v -0.980785 -0.195090 -1.000000
v -0.980785 -0.195090 1.000000
v -0.995185 -0.098017 -1.000000
v -0.995185 -0.098017 1.000000
v -1.000000 -0.000000 -1.000000
v -1.000000 -0.000001 1.000000
v -0.995185 0.098017 -1.000000
v -0.995185 0.098016 1.000000
v -0.980785 0.195090 -1.000000
v -0.980785 0.195089 1.000000
v -0.956941 0.290284 -1.000000
v -0.956941 0.290284 1.000000
v -0.923880 0.382682 -1.000000
v -0.923880 0.382682 1.000000
v -0.881922 0.471395 -1.000000
v -0.881922 0.471395 1.000000
v -0.831471 0.555569 -1.000000
v -0.831471 0.555569 1.000000
v -0.773012 0.634392 -1.000000
v -0.773012 0.634392 1.000000
v -0.707108 0.707105 -1.000000
v -0.707108 0.707105 1.000000
v -0.634395 0.773009 -1.000000
v -0.634395 0.773009 1.000000
v -0.555572 0.831468 -1.000000
v -0.555572 0.831468 1.000000
v -0.471399 0.881920 -1.000000
v -0.471399 0.881920 1.000000
v -0.382686 0.923878 -1.000000
v -0.382686 0.923878 1.000000
v -0.290288 0.956940 -1.000000
v -0.290288 0.956939 1.000000
v -0.195093 0.980785 -1.000000
v -0.195093 0.980785 1.000000
v -0.098021 0.995184 -1.000000
v -0.098021 0.995184 1.000000
v -0.579758 -0.475794 1.000000
v -0.579758 -0.475794 -1.000000
v -0.623603 -0.416677 1.000000
v -0.623603 -0.416677 -1.000000
v 0.073512 -0.746389 1.000000
v 0.073512 -0.746388 -1.000000
v -0.000001 -0.750000 1.000000
v -0.000001 -0.750000 -1.000000
v -0.530331 -0.530330 1.000000
v -0.530331 -0.530329 -1.000000
v -0.073513 -0.746389 1.000000
v -0.073513 -0.746388 -1.000000
v 0.073513 0.746388 1.000000
v 0.073513 0.746389 -1.000000
v 0.146318 0.735589 1.000000
v 0.146318 0.735589 -1.000000
v 0.661441 0.353548 1.000000
v 0.661441 0.353548 -1.000000
v 0.623602 0.416678 1.000000
v 0.623602 0.416678 -1.000000
v 0.000000 0.750000 1.000000
v 0.000000 0.750000 -1.000000
v 0.579758 0.475795 1.000000
v 0.579758 0.475795 -1.000000
v -0.217714 -0.717705 1.000000
v -0.217714 -0.717705 -1.000000
v -0.717705 -0.217713 1.000000
v -0.717705 -0.217713 -1.000000
v -0.146318 -0.735589 1.000000
v -0.146318 -0.735589 -1.000000
v -0.287013 -0.692909 1.000000
v -0.287013 -0.692909 -1.000000
v 0.146317 -0.735589 1.000000
v 0.146317 -0.735589 -1.000000
v 0.353547 -0.661441 1.000000
v 0.353547 -0.661441 -1.000000
v 0.287012 -0.692910 1.000000
v 0.287012 -0.692910 -1.000000
v 0.217713 -0.717705 1.000000
v 0.217713 -0.717705 -1.000000
v -0.661441 -0.353547 1.000000
v -0.661441 -0.353547 -1.000000
v -0.692910 -0.287012 1.000000
v -0.692910 -0.287012 -1.000000
v -0.735589 -0.146318 1.000000
v -0.735589 -0.146318 -1.000000
v -0.746389 -0.073513 1.000000
v -0.746389 -0.073513 -1.000000
v 0.530330 0.530330 1.000000
v 0.530330 0.530330 -1.000000
v 0.475795 0.579758 1.000000
v 0.475795 0.579758 -1.000000
v 0.217714 0.717705 1.000000
v 0.217714 0.717705 -1.000000
v 0.416678 0.623602 1.000000
v 0.416678 0.623602 -1.000000
v -0.475796 -0.579757 1.000000
v -0.475796 -0.579757 -1.000000
v -0.416678 -0.623602 1.000000
v -0.416678 -0.623602 -1.000000
v -0.353548 -0.661441 1.000000
v -0.353548 -0.661441 -1.000000
v 0.530330 -0.530330 1.000000
v 0.530330 -0.530330 -1.000000
v 0.475795 -0.579758 1.000000
v 0.475795 -0.579758 -1.000000
v 0.416677 -0.623603 1.000000
v 0.416677 -0.623602 -1.000000
v -0.073515 0.746388 1.000000
v -0.073515 0.746388 -1.000000
v -0.146320 0.735588 1.000000
v -0.146320 0.735588 -1.000000
v 0.692910 -0.287013 1.000000
v 0.692910 -0.287013 -1.000000
v 0.717705 -0.217714 1.000000
v 0.717705 -0.217714 -1.000000
v -0.623603 0.416677 1.000000
v -0.623603 0.416677 -1.000000
v -0.661441 0.353547 1.000000
v -0.661441 0.353547 -1.000000
v -0.735589 0.146317 1.000000
v -0.735589 0.146317 -1.000000
v -0.579759 0.475794 1.000000
v -0.579759 0.475794 -1.000000
v -0.530331 0.530329 1.000000
v -0.530331 0.530329 -1.000000
v -0.475796 0.579757 1.000000
v -0.475796 0.579757 -1.000000
v -0.287015 0.692909 1.000000
v -0.287015 0.692909 -1.000000
v -0.353549 0.661440 1.000000
v -0.353549 0.661440 -1.000000
v -0.692910 0.287012 1.000000
v -0.692910 0.287012 -1.000000
v -0.717705 0.217713 1.000000
v -0.717705 0.217713 -1.000000
v -0.746389 0.073512 1.000000
v -0.746389 0.073512 -1.000000
v -0.750000 -0.000000 1.000000
v -0.750000 -0.000000 -1.000000
v -0.217716 0.717705 1.000000
v -0.217716 0.717705 -1.000000
v 0.750000 -0.000000 1.000000
v 0.750000 -0.000000 -1.000000
v 0.623602 -0.416678 1.000000
v 0.623602 -0.416678 -1.000000
v 0.579758 -0.475795 1.000000
v 0.579758 -0.475795 -1.000000
v 0.746389 0.073513 1.000000
v 0.746389 0.073513 -1.000000
v 0.692910 0.287013 1.000000
v 0.692910 0.287013 -1.000000
v -0.416679 0.623601 1.000000
v -0.416679 0.623601 -1.000000
v 0.287013 0.692910 1.000000
v 0.287013 0.692910 -1.000000
v 0.717705 0.217713 1.000000
v 0.717705 0.217714 -1.000000
v 0.735589 -0.146318 1.000000
v 0.735589 -0.146318 -1.000000
v 0.661441 -0.353548 1.000000
v 0.661441 -0.353548 -1.000000
v 0.746389 -0.073513 1.000000
v 0.746389 -0.073513 -1.000000
v 0.735589 0.146318 1.000000
v 0.735589 0.146318 -1.000000
v 0.353548 0.661441 1.000000
v 0.353548 0.661441 -1.000000
vn 0.0491 0.9988 0.0000
vn 0.1467 0.9892 0.0000
vn 0.2430 0.9700 0.0000
vn 0.3369 0.9415 0.0000
vn 0.4276 0.9040 0.0000
vn 0.5141 0.8577 0.0000
vn 0.5957 0.8032 0.0000
vn 0.6716 0.7410 0.0000
vn 0.7410 0.6716 0.0000
vn 0.8032 0.5957 0.0000
vn 0.8577 0.5141 0.0000
vn 0.9040 0.4276 0.0000
vn 0.9415 0.3369 0.0000
vn 0.9700 0.2430 0.0000
vn 0.9892 0.1467 0.0000
vn 0.9988 0.0491 0.0000
vn 0.9988 -0.0491 -0.0000
vn 0.9892 -0.1467 -0.0000
vn 0.9700 -0.2430 -0.0000
vn 0.9415 -0.3369 -0.0000
vn 0.9040 -0.4276 -0.0000
vn 0.8577 -0.5141 -0.0000
vn 0.8032 -0.5957 -0.0000
vn 0.7410 -0.6716 -0.0000
vn 0.6716 -0.7410 -0.0000
vn 0.5957 -0.8032 -0.0000
vn 0.5141 -0.8577 -0.0000
vn 0.4276 -0.9040 -0.0000
vn 0.3369 -0.9415 -0.0000
vn 0.2430 -0.9700 -0.0000
vn 0.1467 -0.9892 -0.0000
vn 0.0491 -0.9988 -0.0000
vn -0.0491 -0.9988 -0.0000
vn -0.1467 -0.9892 -0.0000
vn -0.2430 -0.9700 -0.0000
vn -0.3369 -0.9415 -0.0000
vn -0.4276 -0.9040 -0.0000
vn -0.5141 -0.8577 -0.0000
vn -0.5957 -0.8032 -0.0000
vn -0.6716 -0.7410 -0.0000
vn -0.7410 -0.6716 -0.0000
vn -0.8032 -0.5957 -0.0000
vn -0.8577 -0.5141 -0.0000
vn -0.9040 -0.4276 -0.0000
vn -0.9415 -0.3369 -0.0000
vn -0.9700 -0.2430 -0.0000
vn -0.9892 -0.1467 -0.0000
vn -0.9988 -0.0491 -0.0000
vn -0.9988 0.0491 0.0000
vn -0.9892 0.1467 0.0000
vn -0.9700 0.2430 0.0000
vn -0.9415 0.3369 0.0000
vn -0.9040 0.4276 0.0000
vn -0.8577 0.5141 0.0000
vn -0.8032 0.5957 0.0000
vn -0.7410 0.6716 0.0000
vn -0.6716 0.7410 0.0000
vn -0.5957 0.8032 0.0000
vn -0.5141 0.8577 0.0000
vn -0.4276 0.9040 0.0000
vn -0.3369 0.9415 0.0000
vn -0.2430 0.9700 0.0000
vn -0.0000 -0.0000 1.0000
vn -0.1467 0.9892 0.0000
vn -0.0491 0.9988 0.0000
vn 0.0000 0.0000 -1.0000
usemtl None
s off
f 1//1 2//1 4//1 3//1
f 3//2 4//2 6//2 5//2
f 5//3 6//3 8//3 7//3
f 7//4 8//4 10//4 9//4
f 9//5 10//5 12//5 11//5
f 11//6 12//6 14//6 13//6
f 13//7 14//7 16//7 15//7
f 15//8 16//8 18//8 17//8
f 17//9 18//9 20//9 19//9
f 19//10 20//10 22//10 21//10
f 21//11 22//11 24//11 23//11
f 23//12 24//12 26//12 25//12
f 25//13 26//13 28//13 27//13
f 27//14 28//14 30//14 29//14
f 29//15 30//15 32//15 31//15
f 31//16 32//16 34//16 33//16
f 33//17 34//17 36//17 35//17
f 35//18 36//18 38//18 37//18
f 37//19 38//19 40//19 39//19
f 39//20 40//20 42//20 41//20
f 41//21 42//21 44//21 43//21
f 43//22 44//22 46//22 45//22
f 45//23 46//23 48//23 47//23
f 47//24 48//24 50//24 49//24
f 49//25 50//25 52//25 51//25
f 51//26 52//26 54//26 53//26
f 53//27 54//27 56//27 55//27
f 55//28 56//28 58//28 57//28
f 57//29 58//29 60//29 59//29
f 59//30 60//30 62//30 61//30
f 61//31 62//31 64//31 63//31
f 63//32 64//32 66//32 65//32
f 65//33 66//33 68//33 67//33
f 67//34 68//34 70//34 69//34
f 69//35 70//35 72//35 71//35
f 71//36 72//36 74//36 73//36
f 73//37 74//37 76//37 75//37
f 75//38 76//38 78//38 77//38
f 77//39 78//39 80//39 79//39
f 79//40 80//40 82//40 81//40
f 81//41 82//41 84//41 83//41
f 83//42 84//42 86//42 85//42
f 85//43 86//43 88//43 87//43
f 87//44 88//44 90//44 89//44
f 89//45 90//45 92//45 91//45
f 91//46 92//46 94//46 93//46
f 93//47 94//47 96//47 95//47
f 95//48 96//48 98//48 97//48
f 97//49 98//49 100//49 99//49
f 99//50 100//50 102//50 101//50
f 101//51 102//51 104//51 103//51
f 103//52 104//52 106//52 105//52
f 105//53 106//53 108//53 107//53
f 107//54 108//54 110//54 109//54
f 109//55 110//55 112//55 111//55
f 111//56 112//56 114//56 113//56
f 113//57 114//57 116//57 115//57
f 115//58 116//58 118//58 117//58
f 117//59 118//59 120//59 119//59
f 119//60 120//60 122//60 121//60
f 121//61 122//61 124//61 123//61
f 123//62 124//62 126//62 125//62
f 4//63 2//63 128//63 126//63 124//63 122//63 120//63 118//63 116//63 114//63 112//63 110//63 108//63 106//63 104//63 102//63 100//63 98//63 227//63 225//63 209//63 223//63 221//63 207//63 205//63 211//63 213//63 215//63 241//63 219//63 217//63 229//63 199//63 197//63 149//63 141//63 143//63 181//63 243//63 255//63 183//63 179//63 177//63 151//63 147//63 145//63 239//63 245//63 253//63 237//63 231//63 34//63 32//63 30//63 28//63 26//63 24//63 22//63 20//63 18//63 16//63 14//63 12//63 10//63 8//63 6//63
f 125//64 126//64 128//64 127//64
f 127//65 128//65 2//65 1//65
f 1//66 3//66 5//66 7//66 9//66 11//66 13//66 15//66 17//66 19//66 21//66 23//66 25//66 27//66 29//66 31//66 33//66 232//66 238//66 254//66 246//66 240//66 146//66 148//66 152//66 178//66 180//66 184//66 256//66 244//66 182//66 144//66 142//66 150//66 198//66 200//66 230//66 218//66 220//66 242//66 216//66 214//66 212//66 206//66 208//66 222//66 224//66 210//66 226//66 228//66 97//66 99//66 101//66 103//66 105//66 107//66 109//66 111//66 113//66 115//66 117//66 119//66 121//66 123//66 125//66 127//66
f 130//9 129//9 137//9 138//9
f 34//63 231//63 251//63 247//63 203//63 201//63 249//63 233//63 235//63 191//63 193//63 195//63 163//63 165//63 167//63 161//63 133//63 135//63 139//63 157//63 153//63 159//63 189//63 187//63 185//63 137//63 129//63 131//63 169//63 171//63 155//63 173//63 175//63 227//63 98//63 96//63 94//63 92//63 90//63 88//63 86//63 84//63 82//63 80//63 78//63 76//63 74//63 72//63 70//63 68//63 66//63 64//63 62//63 60//63 58//63 56//63 54//63 52//63 50//63 48//63 46//63 44//63 42//63 40//63 38//63 36//63
f 188//6 187//6 189//6 190//6
f 184//38 183//38 255//38 256//38
f 140//1 139//1 135//1 136//1
f 168//61 167//61 165//61 166//61
f 238//47 237//47 253//47 254//47
f 178//40 177//40 179//40 180//40
f 166//60 165//60 163//60 164//60
f 176//15 175//15 173//15 174//15
f 236//55 235//55 233//55 234//55
f 244//36 243//36 181//36 182//36
f 218//28 217//28 219//28 220//28
f 162//62 161//62 167//62 168//62
f 148//42 147//42 151//42 152//42
f 142//33 141//33 149//33 150//33
f 248//50 247//50 251//50 252//50
f 252//49 251//49 231//49 232//49
f 232//48 231//48 237//48 238//48
f 154//3 153//3 157//3 158//3
f 226//17 225//17 227//17 228//17
f 208//21 207//21 221//21 222//21
f 174//14 173//14 155//14 156//14
f 250//53 249//53 201//53 202//53
f 242//26 241//26 215//26 216//26
f 198//31 197//31 199//31 200//31
f 132//10 131//10 129//10 130//10
f 210//18 209//18 225//18 226//18
f 202//52 201//52 203//52 204//52
f 214//24 213//24 211//24 212//24
f 172//12 171//12 169//12 170//12
f 246//45 245//45 239//45 240//45
f 212//23 211//23 205//23 206//23
f 190//5 189//5 159//5 160//5
f 196//58 195//58 193//58 194//58
f 144//34 143//34 141//34 142//34
f 156//13 155//13 171//13 172//13
f 220//27 219//27 241//27 242//27
f 234//54 233//54 249//54 250//54
f 180//39 179//39 183//39 184//39
f 256//37 255//37 243//37 244//37
f 146//43 145//43 147//43 148//43
f 240//44 239//44 145//44 146//44
f 230//29 229//29 217//29 218//29
f 160//4 159//4 153//4 154//4
f 206//22 205//22 207//22 208//22
f 194//57 193//57 191//57 192//57
f 254//46 253//46 245//46 246//46
f 200//30 199//30 229//30 230//30
f 152//41 151//41 177//41 178//41
f 164//59 163//59 195//59 196//59
f 224//19 223//19 209//19 210//19
f 136//65 135//65 133//65 134//65
f 158//2 157//2 139//2 140//2
f 97//66 228//66 176//66 174//66 156//66 172//66 170//66 132//66 130//66 138//66 186//66 188//66 190//66 160//66 154//66 158//66 140//66 136//66 134//66 162//66 168//66 166//66 164//66 196//66 194//66 192//66 236//66 234//66 250//66 202//66 204//66 248//66 252//66 232//66 33//66 35//66 37//66 39//66 41//66 43//66 45//66 47//66 49//66 51//66 53//66 55//66 57//66 59//66 61//66 63//66 65//66 67//66 69//66 71//66 73//66 75//66 77//66 79//66 81//66 83//66 85//66 87//66 89//66 91//66 93//66 95//66
f 182//35 181//35 143//35 144//35
f 204//51 203//51 247//51 248//51
f 186//7 185//7 187//7 188//7
f 138//8 137//8 185//8 186//8
f 150//32 149//32 197//32 198//32
f 192//56 191//56 235//56 236//56
f 134//64 133//64 161//64 162//64
f 228//16 227//16 175//16 176//16
f 170//11 169//11 131//11 132//11
f 222//20 221//20 223//20 224//20
f 216//25 215//25 213//25 214//25
